<?xml version="1.0" encoding="utf-8"?>
<svg xmlns="http://www.w3.org/2000/svg" >

    <symbol viewBox="0 0 256 240" version="1.1" id="metamask">
    <title>MetaMask</title>
    <g>
				<polygon fill="#E17726" points="250.066018 -8.89651791e-15 140.218553 81.2793133 160.645643 33.3787726"></polygon>
				<polygon fill="#E27625" points="6.19062016 0.0955267053 95.3715526 33.38465 114.767923 81.9132784"></polygon>
				<polygon fill="#E27625" points="205.859986 172.858026 254.410647 173.782023 237.442988 231.424252 178.200429 215.112736"></polygon>
				<polygon fill="#E27625" points="50.1391619 172.857971 77.6964289 215.11288 18.5530579 231.425317 1.68846828 173.782036"></polygon>
				<polygon fill="#E27625" points="112.130724 69.5516472 114.115388 133.635085 54.744344 130.933905 71.6319541 105.456448 71.8456974 105.210668"></polygon>
				<polygon fill="#E27625" points="143.254237 68.8369186 184.153999 105.213392 184.365514 105.45719 201.253537 130.934656 141.89632 133.635226"></polygon>
				<polygon fill="#E27625" points="79.4347776 173.043957 111.853145 198.302774 74.1951401 216.484384"></polygon>
				<polygon fill="#E27625" points="176.57078 173.040009 181.701672 216.484523 144.149363 198.301203"></polygon>
				<polygon fill="#D5BFB2" points="144.977922 195.921642 183.084879 214.373531 147.637779 231.220354 148.005818 220.085704"></polygon>
				<polygon fill="#D5BFB2" points="111.01133 195.929982 108.102093 219.90359 108.340838 231.207237 72.8105145 214.373665"></polygon>
				<polygon fill="#233447" points="100.007166 141.998856 109.965172 162.926822 76.0615945 152.995277"></polygon>
				<polygon fill="#233447" points="155.991579 142.000941 180.049716 152.994594 146.03608 162.923638"></polygon>
				<polygon fill="#CC6228" points="82.0263962 172.830401 76.5459821 217.870023 47.1731221 173.814952"></polygon>
				<polygon fill="#CC6228" points="173.976111 172.8305 208.830462 173.815081 179.347016 217.871514"></polygon>
				<polygon fill="#CC6228" points="202.112267 128.387342 176.746779 154.238424 157.190334 145.301352 147.82685 164.985265 141.688645 131.136429"></polygon>
				<polygon fill="#CC6228" points="53.8753865 128.386879 114.309585 131.136429 108.17138 164.985265 98.8061425 145.303856 79.3525107 154.238823"></polygon>
				<polygon fill="#E27525" points="52.165606 123.082486 80.8639084 152.203386 81.8584812 180.952278"></polygon>
				<polygon fill="#E27525" points="203.863346 123.029784 174.117491 181.003017 175.237428 152.202737"></polygon>
				<polygon fill="#E27525" points="112.906762 124.855691 114.061658 132.125682 116.915771 150.236518 115.080954 205.861884 106.405804 161.177486 106.402953 160.71542"></polygon>
				<polygon fill="#E27525" points="143.077997 124.755417 149.599051 160.715451 149.596194 161.177486 140.899333 205.973714 140.55515 194.76913 139.198167 149.907127"></polygon>
				<polygon fill="#F5841F" points="177.788479 151.045975 176.81718 176.023897 146.543342 199.61119 140.4233 195.28712 147.283427 159.951634"></polygon>
				<polygon fill="#F5841F" points="78.3167053 151.046455 108.716464 159.952427 115.576437 195.28712 109.456385 199.611197 79.1807344 176.021881"></polygon>
				<polygon fill="#C0AC9D" points="67.0180978 208.857597 105.750143 227.209502 105.586194 219.372868 108.826835 216.528328 147.160694 216.528328 150.518758 219.363342 150.271375 227.194477 188.757733 208.903978 170.030292 224.379509 147.384611 239.933315 108.516484 239.933315 85.8855503 224.315941"></polygon>
				<polygon fill="#161616" points="142.203502 193.479367 147.679764 197.347701 150.888964 222.952494 146.244706 219.030957 109.769299 219.030957 105.213447 223.031398 108.317268 197.349663 113.795429 193.479367"></polygon>
				<polygon fill="#763E1A" points="242.814251 2.24978946 256 41.8072765 247.765337 81.803692 253.629038 86.3274221 245.694407 92.3812097 251.657525 96.9865879 243.761206 104.178247 248.609106 107.688972 235.743366 122.714803 182.973386 107.350364 182.516079 107.105244 144.488982 75.0267414"></polygon>
				<polygon fill="#763E1A" points="13.1860054 2.24978557 111.51151 75.0267402 73.4844118 107.105244 73.0271023 107.350365 20.2567388 122.714804 7.39121291 107.688927 12.2352706 104.180751 4.34251001 96.9865923 10.2945566 92.3862179 2.24133703 86.315099 8.32629691 81.7886671 -8.89651791e-15 41.8087534"></polygon>
				<polygon fill="#F5841F" points="180.391638 103.990363 236.304873 120.269177 254.470245 176.254719 206.546445 176.25462 173.525532 176.671282 197.539657 129.863284"></polygon>
				<polygon fill="#F5841F" points="75.6080363 103.990376 58.4568191 129.863284 82.4741865 176.671282 49.4693913 176.254719 1.63053271 176.254719 19.6938968 120.269548"></polygon>
				<polygon fill="#F5841F" points="163.383898 33.1117385 147.744691 75.3505047 144.425852 132.411352 143.155934 150.295986 143.055195 195.983514 112.943788 195.983514 112.846176 150.381702 111.572114 132.395585 108.251786 75.3505047 92.6150854 33.1117385"></polygon>
            </g>
    </symbol>

    <symbol version="1.0" id="walletconnect" xmlns="http://www.w3.org/2000/svg" xmlns:xlink="http://www.w3.org/1999/xlink" x="0px" y="0px"
	 viewBox="0 0 824 618" style="enable-background:new 0 0 824 618;" xml:space="preserve">
        <style type="text/css">
            .st0{fill-rule:evenodd;clip-rule:evenodd;fill:url(#SVGID_1_);}
            .st1{fill:#FFFFFF;}
        </style>
        <g>
            
                <radialGradient id="SVGID_1_" cx="13.2793" cy="609.416" r="1" gradientTransform="matrix(512 0 0 -512 -6643 312330)" gradientUnits="userSpaceOnUse">
                <stop  offset="0" style="stop-color:#5D9DF6"/>
                <stop  offset="1" style="stop-color:#006FFF"/>
            </radialGradient>
            <path class="st0" d="M412,53c141.4,0,256,114.6,256,256S553.4,565,412,565S156,450.4,156,309S270.6,53,412,53z"/>
            <path class="st1" d="M318.7,250.7c51.5-50.3,135.1-50.3,186.6,0l6.2,6.1c2.6,2.5,2.6,6.6,0,9.1l-21.2,20.7c-1.3,1.3-3.4,1.3-4.7,0
                l-8.5-8.3c-36-35.1-94.2-35.1-130.2,0l-9.1,8.9c-1.3,1.3-3.4,1.3-4.7,0l-21.2-20.7c-2.6-2.5-2.6-6.6,0-9.1L318.7,250.7z
                M549.2,293.5l18.9,18.4c2.6,2.5,2.6,6.6,0,9.1l-85.1,83.1c-2.6,2.5-6.8,2.5-9.3,0c0,0,0,0,0,0l-60.4-59c-0.6-0.6-1.7-0.6-2.3,0
                c0,0,0,0,0,0l-60.4,59c-2.6,2.5-6.8,2.5-9.3,0c0,0,0,0,0,0L255.9,321c-2.6-2.5-2.6-6.6,0-9.1l18.9-18.4c2.6-2.5,6.8-2.5,9.3,0
                l60.4,59c0.6,0.6,1.7,0.6,2.3,0c0,0,0,0,0,0l60.4-59c2.6-2.5,6.8-2.5,9.3,0c0,0,0,0,0,0l60.4,59c0.6,0.6,1.7,0.6,2.3,0l60.4-59
                C542.4,291,546.6,291,549.2,293.5L549.2,293.5z"/>
        </g>
    </symbol>

    <symbol viewBox="0 0 19 21" fill="none" id="burn">
        <path d="M15.9252 5.39298L15.9251 5.39285C14.7104 3.44921 13.1303 1.77525 11.7527 0.397716C11.6748 0.320568 11.5796 0.263169 11.4751 0.230299M15.9252 5.39298L11.4751 0.230299M15.9252 5.39298C17.3637 7.68157 18.0625 9.9202 18.0625 12.241C18.0625 14.5119 17.1604 16.6898 15.5546 18.2956C13.9488 19.9014 11.7709 20.8035 9.5 20.8035C7.22908 20.8035 5.05118 19.9014 3.4454 18.2956C1.83962 16.6898 0.9375 14.5119 0.9375 12.241C0.9375 10.0926 1.85862 7.61104 3.68325 4.86002C3.7335 4.78494 3.79806 4.72049 3.87324 4.67037C3.9484 4.62027 4.0327 4.58546 4.12131 4.56795C4.30018 4.5336 4.48539 4.57065 4.63729 4.67116C4.63732 4.67118 4.63735 4.6712 4.63738 4.67122L7.65592 6.6867L7.71596 6.72679L7.74704 6.66163L10.6439 0.586653C10.6439 0.586644 10.6439 0.586635 10.6439 0.586625C10.6913 0.487307 10.7622 0.401024 10.8505 0.335227C10.9387 0.269424 11.0416 0.226088 11.1503 0.208963L11.1504 0.208971M15.9252 5.39298L11.1504 0.208971M11.4751 0.230299C11.3704 0.197408 11.2594 0.190038 11.1513 0.208803M11.4751 0.230299L11.1513 0.208803M11.1504 0.208971L11.1513 0.208803M11.1504 0.208971L11.1513 0.208803M15.1212 13.1127L15.1219 13.1128V13.1035V13.1002C15.1424 12.9943 15.1416 12.8854 15.1196 12.7798C15.0971 12.6721 15.053 12.5701 14.99 12.48C14.9269 12.3898 14.8462 12.3134 14.7527 12.2554C14.6593 12.1974 14.555 12.1589 14.4462 12.1424C14.3375 12.1259 14.2265 12.1316 14.12 12.1593C14.0135 12.1869 13.9138 12.2359 13.8268 12.3033C13.7398 12.3706 13.6674 12.4549 13.614 12.5511C13.5608 12.6467 13.5276 12.7521 13.5161 12.8608C13.3779 13.7091 12.9765 14.4925 12.3687 15.1003C11.7606 15.7085 10.9766 16.11 10.1277 16.248C9.92634 16.2801 9.74445 16.3867 9.61806 16.5467C9.49168 16.7066 9.43005 16.9082 9.44539 17.1115C9.46073 17.3148 9.55193 17.5049 9.70089 17.6441C9.84985 17.7832 10.0457 17.8613 10.2495 17.8629H10.25H10.3625V17.8636L10.3718 17.8622C11.5674 17.6828 12.674 17.1247 13.5288 16.2698C14.3837 15.4149 14.9418 14.3084 15.1212 13.1127Z" fill="black" stroke="white" stroke-width="0.125"/>
    </symbol>



</svg>